<svg width="64" height="60" viewBox="0 0 64 60" version="1.1" xmlns="http://www.w3.org/2000/svg" xmlns:xlink="http://www.w3.org/1999/xlink">
<g id="Canvas" fill="none">
<g id="casual-t-shirt-">
<g id="Group">
<g id="Vector">
<path d="M 5.08334 3.63958C 7.4217 3.63958 9.44149 2.16671 10.1671 1.23908e-07C 8.78278 0.376427 7.01837 0.603619 5.08334 0.603619C 3.1485 0.603619 1.38409 0.376427 -4.45972e-07 1.23908e-07C 0.7252 2.16653 2.7448 3.63958 5.08334 3.63958Z" transform="matrix(0.969852 -0.243695 0.243695 0.969852 21.7803 9.50208)" fill="#EB5757"/>
</g>
<g id="Vector_2">
<path d="M 53.9166 7.14959C 53.8056 6.84173 53.5745 6.58856 53.2734 6.45069L 42.9813 1.75708C 40.792 1.02444 38.5616 0.445721 36.3094 0.0227371C 36.2301 0.00739849 36.1512 -2.47816e-08 36.0734 -2.47816e-08C 35.5159 -2.47816e-08 35.0167 0.380217 34.8924 0.93782C 34.0701 4.51442 30.8651 7.19218 26.9918 7.19218C 23.1186 7.19218 19.9135 4.5146 19.0913 0.93782C 18.9656 0.380217 18.4673 -2.47816e-08 17.9102 -2.47816e-08C 17.8323 -2.47816e-08 17.7534 0.00739849 17.6741 0.0227371C 15.4222 0.445721 13.1918 1.02444 10.999 1.75708L 0.710486 6.45051C 0.407619 6.58838 0.174897 6.84155 0.069131 7.14941C -0.0402884 7.46087 -0.0205601 7.79706 0.133613 8.09084L 4.60172 16.8017C 4.81088 17.2151 5.23632 17.4633 5.68642 17.4633C 5.8026 17.4633 5.92042 17.4467 6.0366 17.4122L 10.9992 15.9592L 10.9992 45.1873C 10.9992 45.851 11.5474 46.3924 12.2211 46.3924L 41.763 46.3924C 42.4349 46.3924 42.9814 45.8508 42.9814 45.1873L 42.9814 15.9595L 47.9475 17.4125C 48.0637 17.447 48.1813 17.4636 48.2973 17.4636C 48.7465 17.4636 49.1703 17.2155 49.3824 16.8021L 53.8521 8.0912C 54.0027 7.79724 54.0242 7.46105 53.9166 7.14959Z" transform="matrix(0.969852 -0.243695 0.243695 0.969852 0.325195 14.021)" fill="#EB5757"/>
</g>
</g>
</g>
</g>
</svg>

