<svg width="63" height="41" viewBox="0 0 63 41" version="1.1" xmlns="http://www.w3.org/2000/svg" xmlns:xlink="http://www.w3.org/1999/xlink">
<g id="Canvas" fill="none">
<g id="laundry-detergent-measuring-spoon">
<g id="Vector">
<path d="M 14.6843 0.82001C 13.2339 -0.273336 11.2398 -0.273336 9.78949 0.82001L -1.17159e-06 8.19998L 24.4738 8.19998L 14.6843 0.82001Z" transform="translate(35.6904 12.2999)" fill="#E4EAF8"/>
</g>
<g id="Vector_2">
<path d="M 14.6842 0.82001C 13.2339 -0.273336 11.2398 -0.273336 9.78949 0.82001L -1.17159e-06 8.19998L 8.15789 8.19998L 14.6842 0.82001Z" transform="translate(35.6904 12.2999)" fill="#D5DCED"/>
</g>
<g id="Group">
<g id="Vector_3">
<path d="M 7.13783 3.07485L 6.11814 3.07485C 5.55495 3.07485 5.09845 2.61599 5.09845 2.0499L 5.09845 1.02495C 5.09845 0.458859 4.64231 -1.35881e-07 4.07876 -1.35881e-07C 3.51508 -1.35881e-07 3.05907 0.458983 3.05907 1.02495L 3.05907 2.0499C 3.05907 2.61599 2.60256 3.07485 2.03938 3.07485L 1.01969 3.07485C 0.456013 3.07485 -9.91345e-07 3.53384 -9.91345e-07 4.0998C -9.91345e-07 4.66577 0.456136 5.12475 1.01969 5.12475L 2.03938 5.12475C 2.60256 5.12475 3.05907 5.58361 3.05907 6.1497L 3.05907 7.17465C 3.05907 7.74075 3.5152 8.19961 4.07876 8.19961C 4.64244 8.19961 5.09845 7.74062 5.09845 7.17465L 5.09845 6.1497C 5.09845 5.58361 5.55495 5.12475 6.11814 5.12475L 7.13783 5.12475C 7.70151 5.12475 8.15752 4.66577 8.15752 4.0998C 8.15752 3.53384 7.70151 3.07485 7.13783 3.07485Z" transform="translate(46.9082 0)" fill="#E4EAF8"/>
</g>
<g id="Vector_4">
<path d="M 3.99137 2.56253L 4.80003 1.74969C 5.19833 1.34934 5.19833 0.700626 4.80003 0.300269C 4.40173 -0.100089 3.75635 -0.100089 3.35804 0.300269L 2.54938 1.1131L 1.74071 0.300269C 1.34241 -0.100089 0.697029 -0.100089 0.298726 0.300269C -0.0995768 0.700626 -0.0995768 1.34934 0.298726 1.74969L 1.10739 2.56253L 0.298726 3.37537C -0.0995768 3.77572 -0.0995768 4.42444 0.298726 4.82479C 0.497939 5.02504 0.7588 5.12509 1.01966 5.12509C 1.28052 5.12509 1.5415 5.02504 1.74059 4.82479L 2.54926 4.01196L 3.35792 4.82479C 3.55713 5.02504 3.81799 5.12509 4.07885 5.12509C 4.33971 5.12509 4.60069 5.02504 4.79978 4.82479C 5.19809 4.42444 5.19809 3.77572 4.79978 3.37537L 3.99137 2.56253Z" transform="translate(55.0654 7.17487)" fill="#E4EAF8"/>
</g>
</g>
<g id="Vector_5">
<path d="M 0 2.05003C 0 3.18221 0.913131 4.10005 2.0395 4.10005L 32.6115 4.10005C 33.0975 4.10005 33.5161 4.44488 33.6114 4.92402L 36.2187 18.0281C 36.5047 19.4654 37.7603 20.5 39.2185 20.5L 56.6369 20.5C 58.0951 20.5 59.3507 19.4654 59.6367 18.0281L 62.9798 1.22606C 63.1061 0.591816 62.6234 -8.75676e-07 61.98 -8.75676e-07L 2.0395 -8.75676e-07C 0.913131 -8.75676e-07 0 0.917843 0 2.05003Z" transform="translate(0 20.4999)" fill="#FF87A5"/>
</g>
<g id="Vector_6">
<path d="M 44.302 16.7041L 41.8092 -8.75676e-07L 2.14863 -8.75676e-07C 1.13263 -8.75676e-07 0.191072 0.697813 0.027912 1.7057C -0.179914 2.99001 0.80077 4.10005 2.03948 4.10005L 32.6115 4.10005C 33.0976 4.10005 33.5161 4.44487 33.6115 4.92402L 36.2188 18.0281C 36.5048 19.4654 37.7604 20.5001 39.2187 20.5001L 52.0069 20.5001C 52.5701 20.5001 53.0266 20.0413 53.0266 19.4752C 53.0266 18.9091 52.5701 18.4502 52.0069 18.4502L 46.3191 18.4502C 45.3094 18.45 44.4518 17.7076 44.302 16.7041Z" transform="translate(0 20.4999)" fill="#FF6991"/>
</g>
</g>
</g>
</svg>

